<?xml version="1.0" encoding="UTF-8"?>
<svg xmlns="http://www.w3.org/2000/svg" width="920" height="560" viewBox="0 0 920 560">
  <defs>
    <linearGradient id="bg" x1="0" y1="0" x2="0" y2="1">
      <stop offset="0%" stop-color="#f8fafc"/>
      <stop offset="100%" stop-color="#f1f5f9"/>
    </linearGradient>
  </defs>
  <rect width="100%" height="100%" fill="url(#bg)" rx="12"/>
  <rect x="1" y="1" width="918" height="558" fill="none" stroke="#e2e8f0" rx="12"/>

  <!-- 顶栏 -->
  <rect x="0" y="0" width="920" height="48" fill="#ffffff" rx="12"/>
  <text x="20" y="30" fill="#0f172a" font-family="-apple-system,sans-serif" font-size="14" font-weight="600">微信云开发控制台</text>
  <text x="160" y="30" fill="#64748b" font-size="12">环境：cloudbase-8gnysbdiaca88488</text>
  <rect x="720" y="14" width="80" height="22" fill="#07c160" rx="4"/>
  <text x="736" y="29" fill="#fff" font-size="11">生产环境</text>

  <!-- 侧栏 -->
  <rect x="0" y="48" width="180" height="512" fill="#ffffff"/>
  <text x="20" y="80" fill="#07c160" font-size="12" font-weight="600">数据统计</text>
  <text x="20" y="108" fill="#64748b" font-size="12">数据库</text>
  <text x="20" y="132" fill="#64748b" font-size="12">云函数</text>
  <text x="20" y="156" fill="#64748b" font-size="12">云存储</text>

  <!-- 主内容 -->
  <text x="200" y="80" fill="#0f172a" font-size="16" font-weight="600">analytics_daily 日聚合指标</text>
  <text x="200" y="100" fill="#64748b" font-size="11">数据来源：getAnalyticsDashboard 云函数 · 2026-06-06</text>

  <!-- KPI 卡片 -->
  
  <rect x="200" y="120" width="150" height="72" fill="#fff" stroke="#e2e8f0" rx="8"/>
  <text x="214" y="142" fill="#64748b" font-size="11">DAU</text>
  <text x="214" y="170" fill="#E8A87C" font-size="22" font-weight="700">128</text>
  <text x="214" y="186" fill="#22c55e" font-size="10">+12.3%</text>
  <rect x="370" y="120" width="150" height="72" fill="#fff" stroke="#e2e8f0" rx="8"/>
  <text x="384" y="142" fill="#64748b" font-size="11">新增用户</text>
  <text x="384" y="170" fill="#22c55e" font-size="22" font-weight="700">23</text>
  <text x="384" y="186" fill="#22c55e" font-size="10">+8.1%</text>
  <rect x="540" y="120" width="150" height="72" fill="#fff" stroke="#e2e8f0" rx="8"/>
  <text x="554" y="142" fill="#64748b" font-size="11">会话数</text>
  <text x="554" y="170" fill="#3b82f6" font-size="22" font-weight="700">342</text>
  <text x="554" y="186" fill="#22c55e" font-size="10">+5.6%</text>
  <rect x="710" y="120" width="150" height="72" fill="#fff" stroke="#e2e8f0" rx="8"/>
  <text x="724" y="142" fill="#64748b" font-size="11">平均时长</text>
  <text x="724" y="170" fill="#a855f7" font-size="22" font-weight="700">4.2分</text>
  <text x="724" y="186" fill="#22c55e" font-size="10">+0.8分</text>

  <!-- 功能使用排行 -->
  <rect x="200" y="210" width="340" height="300" fill="#fff" stroke="#e2e8f0" rx="8"/>
  <text x="216" y="234" fill="#0f172a" font-size="13" font-weight="600">功能使用排行</text>
  
  <text x="216" y="258" fill="#334155" font-size="11">创建栖约</text>
  <rect x="310" y="248" width="139" height="12" fill="#E8A87C" opacity="0.7" rx="3"/>
  <text x="520" y="258" fill="#64748b" font-size="10">89人</text>
  <text x="216" y="290" fill="#334155" font-size="11">完成栖约</text>
  <rect x="310" y="280" width="119" height="12" fill="#E8A87C" opacity="0.7" rx="3"/>
  <text x="520" y="290" fill="#64748b" font-size="10">76人</text>
  <text x="216" y="322" fill="#334155" font-size="11">栖日签到</text>
  <rect x="310" y="312" width="106" height="12" fill="#E8A87C" opacity="0.7" rx="3"/>
  <text x="520" y="322" fill="#64748b" font-size="10">68人</text>
  <text x="216" y="354" fill="#334155" font-size="11">栖记</text>
  <rect x="310" y="344" width="70" height="12" fill="#E8A87C" opacity="0.7" rx="3"/>
  <text x="520" y="354" fill="#64748b" font-size="10">45人</text>
  <text x="216" y="386" fill="#334155" font-size="11">栖心</text>
  <rect x="310" y="376" width="59" height="12" fill="#E8A87C" opacity="0.7" rx="3"/>
  <text x="520" y="386" fill="#64748b" font-size="10">38人</text>
  <text x="216" y="418" fill="#334155" font-size="11">风向标去过</text>
  <rect x="310" y="408" width="50" height="12" fill="#E8A87C" opacity="0.7" rx="3"/>
  <text x="520" y="418" fill="#64748b" font-size="10">32人</text>
  <text x="216" y="450" fill="#334155" font-size="11">挑战完成</text>
  <rect x="310" y="440" width="28" height="12" fill="#E8A87C" opacity="0.7" rx="3"/>
  <text x="520" y="450" fill="#64748b" font-size="10">18人</text>

  <!-- 漏斗 -->
  <rect x="560" y="210" width="340" height="300" fill="#fff" stroke="#e2e8f0" rx="8"/>
  <text x="576" y="234" fill="#0f172a" font-size="13" font-weight="600">核心转化漏斗</text>
  
  <text x="576" y="262" fill="#334155" font-size="11">DAU</text>
  <rect x="680" y="250" width="280" height="16" fill="#07c160" opacity="0.9" rx="3"/>
  <text x="820" y="262" fill="#64748b" font-size="10">128 (100%)</text>
  <text x="576" y="300" fill="#334155" font-size="11">创建栖约</text>
  <rect x="680" y="288" width="195" height="16" fill="#07c160" opacity="0.8" rx="3"/>
  <text x="820" y="300" fill="#64748b" font-size="10">89 (69.5%)</text>
  <text x="576" y="338" fill="#334155" font-size="11">完成栖约</text>
  <rect x="680" y="326" width="166" height="16" fill="#07c160" opacity="0.7" rx="3"/>
  <text x="820" y="338" fill="#64748b" font-size="10">76 (59.4%)</text>
  <text x="576" y="376" fill="#334155" font-size="11">连续签到7天</text>
  <rect x="680" y="364" width="53" height="16" fill="#07c160" opacity="0.6" rx="3"/>
  <text x="820" y="376" fill="#64748b" font-size="10">24 (18.8%)</text>
  <text x="576" y="414" fill="#334155" font-size="11">挑战完成</text>
  <rect x="680" y="402" width="39" height="16" fill="#07c160" opacity="0.5" rx="3"/>
  <text x="820" y="414" fill="#64748b" font-size="10">18 (14.1%)</text>
  <text x="576" y="452" fill="#334155" font-size="11">树升级</text>
  <rect x="680" y="440" width="26" height="16" fill="#07c160" opacity="0.4" rx="3"/>
  <text x="820" y="452" fill="#64748b" font-size="10">12 (9.4%)</text>

  <!-- 集合统计 -->
  <rect x="200" y="526" width="700" height="24" fill="#f8fafc" stroke="#e2e8f0" rx="4"/>
  <text x="216" y="542" fill="#64748b" font-size="10">集合：users(156) · agreements(2,847) · checkins(1,203) · xin_voice(389) · analytics_events(12,456) · user_badges(423)</text>
</svg>